HIERARCHY
ROOT Hips
{
	OFFSET	0.00	0.00	0.00
	CHANNELS 6 Xposition Yposition Zposition Zrotation Xrotation Yrotation
	JOINT LeftUpLeg
	{
		OFFSET	 0.126116	-0.014019	-0.065224
		CHANNELS 3 Zrotation Xrotation Yrotation
		JOINT LeftLeg
		{
			OFFSET	 0.000000	 0.000000	 0.569914
			CHANNELS 3 Zrotation Xrotation Yrotation
			JOINT LeftFoot
			{
				OFFSET	 0.000000	 0.000000	 0.544423
				CHANNELS 3 Zrotation Xrotation Yrotation
				JOINT LeftToeBase
				{
					OFFSET	 0.000000	 0.000000	 0.207117
					CHANNELS 3 Zrotation Xrotation Yrotation
					End Site
					{
						OFFSET	 0.000000	 0.000000	 0.207117
					}
				}
			}
		}
	}
	JOINT RightUpLeg
	{
		OFFSET	-0.124023	-0.008373	-0.065224
		CHANNELS 3 Zrotation Xrotation Yrotation
		JOINT RightLeg
		{
			OFFSET	 0.000000	 0.000000	 0.570047
			CHANNELS 3 Zrotation Xrotation Yrotation
			JOINT RightFoot
			{
				OFFSET	 0.000000	 0.000000	 0.544354
				CHANNELS 3 Zrotation Xrotation Yrotation
				JOINT RightToeBase
				{
					OFFSET	 0.000000	 0.000000	 0.207540
					CHANNELS 3 Zrotation Xrotation Yrotation
					End Site
					{
						OFFSET	 0.000000	 0.000000	 0.207540
					}
				}
			}
		}
	}
	JOINT Spine
	{
		OFFSET	 0.000184	-0.007763	 0.117403
		CHANNELS 3 Zrotation Xrotation Yrotation
		JOINT Spine1
		{
			OFFSET	 0.000000	 0.000000	 0.137269
			CHANNELS 3 Zrotation Xrotation Yrotation
			JOINT Spine2
			{
				OFFSET	 0.000000	 0.000000	 0.156879
				CHANNELS 3 Zrotation Xrotation Yrotation
				JOINT LeftShoulder
				{
					OFFSET	 0.080501	-0.002496	 0.160144
					CHANNELS 3 Zrotation Xrotation Yrotation
					JOINT LeftArm
					{
						OFFSET	 0.000000	 0.000000	 0.164363
						CHANNELS 3 Zrotation Xrotation Yrotation
						JOINT LeftForeArm
						{
							OFFSET	 0.000000	 0.000000	 0.364576
							CHANNELS 3 Zrotation Xrotation Yrotation
							JOINT LeftHand
							{
								OFFSET	 0.000000	 0.000000	 0.360812
								CHANNELS 3 Zrotation Xrotation Yrotation
								JOINT LeftHandIndex1
								{
									OFFSET	 0.000000	 0.000000	 0.086006
									CHANNELS 3 Zrotation Xrotation Yrotation
									JOINT LeftHandIndex2
									{
										OFFSET	 0.000000	 0.000000	 0.047237
										CHANNELS 3 Zrotation Xrotation Yrotation
										JOINT LeftHandIndex3
										{
											OFFSET	-0.004284	-0.000551	 0.038165
											CHANNELS 3 Zrotation Xrotation Yrotation
											End Site
											{
												OFFSET	-0.004284	-0.000551	 0.038165
											}
										}
									}
								}
							}
						}
					}
				}
				JOINT Neck
				{
					OFFSET	 0.000000	 0.000000	 0.176489
					CHANNELS 3 Zrotation Xrotation Yrotation
					JOINT Head
					{
						OFFSET	 0.000000	-0.001747	 0.077940
						CHANNELS 3 Zrotation Xrotation Yrotation
						End Site
						{
							OFFSET	 0.000000	-0.001747	 0.077940
						}
					}
				}
				JOINT RightShoulder
				{
					OFFSET	-0.080363	 0.000306	 0.159706
					CHANNELS 3 Zrotation Xrotation Yrotation
					JOINT RightArm
					{
						OFFSET	 0.000000	 0.000000	 0.164196
						CHANNELS 3 Zrotation Xrotation Yrotation
						JOINT RightForeArm
						{
							OFFSET	 0.000000	 0.000000	 0.365611
							CHANNELS 3 Zrotation Xrotation Yrotation
							JOINT RightHand
							{
								OFFSET	 0.000000	 0.000000	 0.360648
								CHANNELS 3 Zrotation Xrotation Yrotation
								JOINT RightHandIndex1
								{
									OFFSET	 0.000000	 0.000000	 0.069977
									CHANNELS 3 Zrotation Xrotation Yrotation
									JOINT RightHandIndex2
									{
										OFFSET	 0.000000	 0.000000	 0.052305
										CHANNELS 3 Zrotation Xrotation Yrotation
										JOINT RightHandIndex3
										{
											OFFSET	 0.009002	-0.000782	 0.042196
											CHANNELS 3 Zrotation Xrotation Yrotation
											End Site
											{
												OFFSET	 0.009002	-0.000782	 0.042196
											}
										}
									}
								}
							}
						}
					}
				}
			}
		}
	}
}
MOTION
Frames:    6
Frame Time: 0.03333334
-0.711781	-1.661831	 1.272824	-177.535400	 3.606781	-2.605623	-6.199955	-3.364578	-178.780200	 0.155699	-6.639150	 0.243807	-21.229850	 58.146790	 9.329925	-2.385833	 28.452760	 0.000004	-3.750174	-8.301558	-177.777400	-6.677667	-17.008880	 1.237260	 17.721160	 74.047860	-7.263082	 2.384659	 28.388700	-0.000001	-18.494430	 6.546192	 5.118008	-9.676411	-7.948757	-4.462717	 24.743660	-8.171353	 0.635148	-91.776180	 78.527400	-180.000000	-27.581790	-5.705420	-12.754570	-4.859037	-0.088432	-0.499370	 8.792808	-10.380610	-4.969539	-4.131196	 21.524690	 0.986298	-5.167839	 0.733520	 3.519257	-1.378229	 35.397820	-2.634230	 1.417318	 4.589644	-0.149782	-7.995016	-4.872205	-2.265474	 89.782140	 78.203890	 180.000000	-22.866220	-11.397340	 1.048991	-4.313984	-0.142299	 0.468022	-13.542280	 20.331280	 119.519800	 5.715225	 19.176060	-3.692089	 5.027514	 0.245388	-9.378011	-2.350882	 35.473990	 5.254307
-0.711523	-1.661089	 1.272818	-176.911700	 4.376013	-3.212922	-5.383204	-4.060272	-178.311400	-0.739589	-6.429303	 0.135795	-19.339620	 55.269760	 8.795597	-2.385833	 28.452760	 0.000004	-3.890378	-9.659611	-177.240200	-4.594786	-17.914270	 1.946651	 7.379537	 76.715550	 1.917558	 2.384659	 28.388700	-0.000001	-19.299460	 7.514279	 6.764219	-10.332420	-11.287550	-7.876381	 24.732940	-5.907281	 1.533901	-91.776180	 78.527360	-180.000000	-32.496260	-4.384191	-13.177870	-4.868419	-0.089848	-0.513926	 8.455820	-10.908480	-4.695952	-4.131196	 21.524690	 0.986298	-5.167839	 0.733520	 3.519257	-1.378229	 35.397820	-2.634230	 1.667082	 6.589800	-0.023765	-7.567382	-8.058802	-2.755452	 89.782090	 78.203890	 180.000000	-28.712250	-11.092200	 0.372815	-6.743211	-0.162793	 0.472057	-14.095520	 19.447980	 129.213400	 5.715225	 19.176060	-3.692089	 5.027514	 0.245388	-9.378011	-2.350882	 35.473990	 5.254307
-0.711336	-1.660877	 1.272780	-176.832100	 4.428892	-3.364567	-5.235732	-4.082323	-178.182800	-0.755250	-6.393387	 0.133294	-19.207940	 54.901730	 8.745064	-2.385833	 28.452760	 0.000004	-3.583146	-9.835812	-177.088600	-4.614255	-18.151580	 1.965427	 6.774567	 77.442930	 2.617253	 2.384659	 28.388700	-0.000001	-19.440690	 7.570637	 6.920135	-10.434020	-11.593050	-7.922515	 24.721890	-5.745066	 1.399222	-91.776170	 78.527380	-180.000000	-32.861700	-4.182479	-13.149860	-4.966718	-0.089038	-0.516855	 8.292052	-11.001860	-4.656801	-4.131196	 21.524690	 0.986298	-5.167839	 0.733520	 3.519257	-1.378229	 35.397820	-2.634230	 1.658071	 6.756097	 0.049967	-7.516984	-8.253740	-2.773089	 89.782100	 78.203900	 180.000000	-29.382000	-11.061520	 0.361640	-6.874495	-0.164393	 0.474979	-14.255230	 19.465200	 130.258100	 5.715225	 19.176060	-3.692089	 5.027514	 0.245388	-9.378011	-2.350882	 35.473990	 5.254307
-0.710034	-1.659325	 1.272486	-176.388200	 4.730855	-4.204082	-4.387066	-4.523428	-177.526200	-0.839641	-6.991068	 0.135428	-18.735510	 53.266940	 8.788132	-2.385833	 28.452760	 0.000004	-1.897823	-10.849890	-176.202000	-4.722232	-19.474900	 2.066852	 0.955303	 81.335080	 8.934086	 2.384659	 28.388700	-0.000001	-20.316190	 7.844009	 7.830792	-11.100970	-13.073600	-8.374158	 24.687750	-4.900828	 0.797321	-91.776090	 78.527380	 180.000000	-34.417750	-0.537153	-4.077521	-6.009387	-3.058568	-18.572050	 7.376184	-11.561260	-4.433216	-4.131196	 21.524690	 0.986298	-5.167839	 0.733520	 3.519257	-1.378229	 35.397820	-2.634230	 1.603847	 7.682989	 0.461994	-7.237381	-9.341474	-2.863131	 89.782100	 78.203890	 180.000000	-33.216690	-10.805240	 0.565582	-7.602345	-0.172337	 0.492564	-14.927050	 19.306920	 135.813400	 5.715225	 19.176060	-3.692089	 5.027514	 0.245388	-9.378011	-2.350882	 35.473990	 5.254307
-0.707969	-1.656752	 1.271887	-176.098100	 4.752749	-4.788162	-3.819283	-5.507276	-177.274400	-0.396296	-9.758953	 0.263775	-19.934520	 53.016590	 10.218790	-2.385833	 28.452760	 0.000004	-0.188420	-11.556970	-175.439700	-5.314328	-20.594430	 1.970342	-2.090939	 84.499390	 12.603750	 2.384659	 28.388700	-0.000001	-21.286120	 7.951019	 8.476872	-11.815990	-12.998680	-8.627073	 24.722330	-4.869503	 0.521092	-91.776180	 78.527420	-180.000000	-34.038200	 3.430251	 5.720269	-7.900605	-5.510563	-37.494750	 6.671170	-12.002080	-4.258426	-4.131196	 21.524690	 0.986298	-5.167839	 0.733520	 3.519257	-1.378229	 35.397820	-2.634230	 1.511081	 8.078986	 0.856687	-7.057888	-9.621247	-2.837316	 89.782130	 78.203890	 180.000000	-34.666310	-10.287840	 2.024766	-7.850954	-0.178918	 0.524025	-14.986160	 18.333710	 136.831900	 5.715225	 19.176060	-3.692089	 5.027514	 0.245388	-9.378011	-2.350882	 35.473990	 5.254307
-0.705435	-1.653487	 1.271066	-175.982900	 4.507377	-5.093849	-3.670038	-6.310836	-177.399200	 0.466164	-13.058200	 0.546697	-22.235780	 53.629970	 12.395360	-2.385833	 28.452760	 0.000004	 1.333655	-12.185080	-174.902000	-6.195690	-21.938510	 1.761129	 7.315882	 86.940470	 3.880909	 2.384659	 28.388700	-0.000001	-22.263860	 7.960526	 8.836006	-12.487400	-11.556900	-8.623040	 24.795000	-5.601125	 0.560328	-91.776120	 78.527380	 179.999900	-31.722230	 7.187057	 13.791470	-9.851605	-6.854207	-52.763840	 6.244167	-12.235470	-4.159892	-4.131196	 21.524690	 0.986298	-5.167839	 0.733520	 3.519257	-1.378229	 35.397820	-2.634230	 1.408402	 7.978373	 1.166301	-6.989330	-9.202824	-2.732399	 89.782110	 78.203890	 180.000000	-33.460380	-6.753677	-6.752203	-6.020153	-8.202803	 22.756320	-11.404490	 23.369710	 123.366200	 5.715225	 19.176060	-3.692089	 5.027514	 0.245388	-9.378011	-2.350882	 35.473990	 5.254307
